<svg width="138" height="138" viewBox="0 0 138 138" fill="none" xmlns="http://www.w3.org/2000/svg">
<rect x="0.524109" y="0.524109" width="136.952" height="136.952" fill="#FFA621"/>
<path d="M77.3704 73.8974C77.456 74.0686 77.456 74.5393 77.3704 75.3097C77.2849 76.0373 77.1351 76.829 76.9211 77.685C76.7499 78.5409 76.5573 79.3541 76.3433 80.1244C76.1721 80.852 76.0437 81.2799 75.9581 81.4083C75.7441 81.4083 75.5088 81.4083 75.252 81.4083C75.038 81.3655 74.824 81.3441 74.61 81.3441C74.396 81.3441 74.1606 81.3227 73.9039 81.2799C73.7755 83.0774 73.6257 84.7679 73.4545 86.3514C73.2833 87.8921 73.1121 89.2189 72.9409 90.3316C72.7697 91.4443 72.6199 92.3217 72.4915 92.9636C72.3631 93.6484 72.2348 93.9908 72.1064 93.9908C71.764 94.0764 71.3788 93.9266 70.9508 93.5414C70.5657 93.199 70.1805 92.771 69.7953 92.2575C69.4101 91.7439 69.0677 91.2089 68.7682 90.6526C68.4686 90.0534 68.2974 89.5398 68.2546 89.1119C68.2118 88.2559 68.169 87.3572 68.1262 86.4156C68.1262 85.4313 68.1048 84.5325 68.062 83.7194C68.0192 82.7778 67.9978 81.8363 67.9978 80.8948C67.1847 80.8092 66.3929 80.745 65.6226 80.7022C64.8522 80.6166 64.0818 80.531 63.3115 80.4454C62.9263 80.3598 62.5411 80.317 62.156 80.317C61.7708 80.2742 61.407 80.21 61.0646 80.1244C60.979 82.0931 60.8934 83.912 60.8078 85.5811C60.7222 87.2502 60.6153 88.7053 60.4869 89.9464C60.4013 91.1875 60.2943 92.1505 60.1659 92.8352C60.0803 93.5628 59.9733 93.948 59.8449 93.9908C59.5025 94.0336 59.0959 93.8838 58.6252 93.5414C58.1544 93.199 57.705 92.771 57.2771 92.2575C56.8919 91.7439 56.5281 91.2089 56.1857 90.6526C55.8861 90.0962 55.7149 89.604 55.6722 89.1761C55.5866 88.0633 55.501 86.9292 55.4154 85.7737C55.3298 84.5753 55.2442 83.484 55.1586 82.4997C55.073 81.3441 54.9874 80.21 54.9018 79.0973C54.5594 79.0545 54.217 78.9903 53.8747 78.9047C53.5751 78.8191 53.2541 78.7549 52.9117 78.7121C52.6121 78.6693 52.334 78.6051 52.0772 78.5195C51.906 78.4339 51.6706 78.2627 51.371 78.0059C51.0714 77.7064 50.7718 77.3854 50.4723 77.043C50.1727 76.7006 49.9159 76.3796 49.7019 76.08C49.4879 75.7377 49.3809 75.4809 49.3809 75.3097C49.3809 75.2241 49.8517 75.1171 50.7932 74.9887C51.7776 74.8603 53.0615 74.7533 54.645 74.6677C54.4738 72.1855 54.3026 69.6604 54.1314 67.0926C54.0031 64.4819 53.8961 62.0639 53.8105 59.8384C53.7249 57.5702 53.6821 55.6015 53.6821 53.9324C53.6821 52.2205 53.7463 51.0436 53.8747 50.4016C54.0458 49.5028 54.4524 48.6469 55.0944 47.8337C55.7791 46.9778 56.5067 46.2288 57.2771 45.5869C58.0474 44.9449 58.775 44.4527 59.4597 44.1104C60.1445 43.768 60.5939 43.661 60.8078 43.7894C60.9362 43.9178 61.0432 44.4313 61.1288 45.3301C61.2572 46.2288 61.3428 47.4272 61.3856 48.9251C61.4712 50.423 61.514 52.1563 61.514 54.125C61.514 56.0936 61.514 58.1907 61.514 60.4162C61.514 62.5989 61.4712 64.8885 61.3856 67.2852C61.3428 69.639 61.3 71.9715 61.2572 74.2826C62.3699 74.197 63.4613 74.1328 64.5312 74.09C65.644 74.0472 66.7353 73.983 67.8052 73.8974C67.7624 71.4579 67.7196 68.9757 67.6768 66.4506C67.6768 63.9256 67.6768 61.5717 67.6768 59.3891C67.6768 57.2064 67.7196 55.3019 67.8052 53.6756C67.8908 52.0493 67.9978 50.9152 68.1262 50.2732C68.3402 49.3745 68.7896 48.5185 69.4743 47.7054C70.2019 46.8922 70.9508 46.186 71.7212 45.5869C72.5343 44.9449 73.2833 44.4741 73.9681 44.1746C74.6956 43.875 75.1664 43.8108 75.3804 43.982C75.5944 44.1104 75.7227 45.1161 75.7655 46.9992C75.8083 48.8395 75.7655 51.1719 75.6372 53.9966C75.5516 56.8212 75.4018 59.9882 75.1878 63.4976C75.0166 66.9642 74.8026 70.388 74.5458 73.769C76.2577 73.769 77.1993 73.8118 77.3704 73.8974ZM86.1653 79.3541C86.2937 79.6964 86.3579 80.1458 86.3579 80.7022C86.3579 81.2157 86.2937 81.7721 86.1653 82.3713C86.0369 82.9276 85.8657 83.484 85.6518 84.0404C85.4806 84.5539 85.288 84.9819 85.074 85.3243C84.9028 85.5811 84.6674 85.7951 84.3678 85.9663C84.0682 86.1374 83.7473 86.2658 83.4049 86.3514C83.0625 86.3942 82.7415 86.4156 82.4419 86.4156C82.1424 86.4156 81.907 86.4156 81.7358 86.4156C81.479 86.3728 81.2008 86.1802 80.9012 85.8379C80.6445 85.4955 80.4091 85.0889 80.1951 84.6181C80.0239 84.1046 79.8955 83.5696 79.8099 83.0132C79.7243 82.4141 79.7457 81.8577 79.8741 81.3441C80.0025 80.8306 80.3663 80.3812 80.9654 79.996C81.5646 79.6108 82.2066 79.3113 82.8913 79.0973C83.6189 78.8833 84.3036 78.7977 84.9456 78.8405C85.5876 78.8405 85.9941 79.0117 86.1653 79.3541Z" fill="white"/>
</svg>
